HIERARCHY
ROOT root
{
	OFFSET 0.000000 0.000000 0.000000
	CHANNELS 6 Xposition Yposition Zposition Zrotation Yrotation Xrotation
	JOINT lhip
	{
		OFFSET 0.058581 -0.082280 -0.017664
		CHANNELS 3 Zrotation Yrotation Xrotation
		JOINT lknee
		{
			OFFSET 0.043451 -0.386469 0.008037
			CHANNELS 3 Zrotation Yrotation Xrotation
			JOINT lankle
			{
				OFFSET -0.014790 -0.426874 -0.037428
				CHANNELS 3 Zrotation Yrotation Xrotation
				JOINT ltoe
				{
					OFFSET 0.041054 -0.060286 0.122042
					CHANNELS 3 Zrotation Yrotation Xrotation
					End Site
					{
						OFFSET 0.000000 0.000000 0.000000
					}
				}
			}
		}
	}
	JOINT rhip
	{
		OFFSET -0.060310 -0.090513 -0.013543
		CHANNELS 3 Zrotation Yrotation Xrotation
		JOINT rknee
		{
			OFFSET -0.043257 -0.383688 -0.004843
			CHANNELS 3 Zrotation Yrotation Xrotation
			JOINT rankle
			{
				OFFSET 0.019056 -0.420046 -0.034562
				CHANNELS 3 Zrotation Yrotation Xrotation
				JOINT rtoe
				{
					OFFSET -0.034840 -0.062106 0.130323
					CHANNELS 3 Zrotation Yrotation Xrotation
					End Site
					{
						OFFSET 0.000000 0.000000 0.000000
					}
				}
			}
		}
	}
	JOINT lowerback
	{
		OFFSET 0.004439 0.124404 -0.038385
		CHANNELS 3 Zrotation Yrotation Xrotation
		JOINT upperback
		{
			OFFSET 0.004488 0.137956 0.026820
			CHANNELS 3 Zrotation Yrotation Xrotation
			JOINT chest
			{
				OFFSET -0.002265 0.056032 0.002855
				CHANNELS 3 Zrotation Yrotation Xrotation
				JOINT lowerneck
				{
					OFFSET -0.013390 0.211636 -0.033468
					CHANNELS 3 Zrotation Yrotation Xrotation
					JOINT upperneck
					{
						OFFSET 0.010113 0.088937 0.050410
						CHANNELS 3 Zrotation Yrotation Xrotation
						End Site
						{
							OFFSET 0.000000 0.000000 0.000000
						}
					}
				}
				JOINT lclavicle
				{
					OFFSET 0.071702 0.114000 -0.018898
					CHANNELS 3 Zrotation Yrotation Xrotation
					JOINT lshoulder
					{
						OFFSET 0.122921 0.045205 -0.019046
						CHANNELS 3 Zrotation Yrotation Xrotation
						JOINT lelbow
						{
							OFFSET 0.255332 -0.015649 -0.022946
							CHANNELS 3 Zrotation Yrotation Xrotation
							JOINT lwrist
							{
								OFFSET 0.265709 0.012698 -0.007375
								CHANNELS 3 Zrotation Yrotation Xrotation
								End Site
								{
									OFFSET 0.000000 0.000000 0.000000
								}
							}
						}
					}
				}
				JOINT rclavicle
				{
					OFFSET -0.082954 0.112472 -0.023707
					CHANNELS 3 Zrotation Yrotation Xrotation
					JOINT rshoulder
					{
						OFFSET -0.113228 0.046853 -0.008472
						CHANNELS 3 Zrotation Yrotation Xrotation
						JOINT relbow
						{
							OFFSET -0.260127 -0.014369 -0.031269
							CHANNELS 3 Zrotation Yrotation Xrotation
							JOINT rwrist
							{
								OFFSET -0.269108 0.006794 -0.006027
								CHANNELS 3 Zrotation Yrotation Xrotation
								End Site
								{
									OFFSET 0.000000 0.000000 0.000000
								}
							}
						}
					}
				}
			}
		}
	}
}
MOTION
Frames: 7
Frame Time: 0.033333
1.092409 0.765267 0.883045 -75.540580 2.219029 87.991970 -0.731177 -11.455054 -23.346010 -12.801668 -8.850492 60.407838 9.440060 11.841154 -36.349479 0.000000 -0.000000 0.000000 2.964120 0.488539 -22.659910 -0.823263 -8.806453 61.368459 3.492909 -13.591753 -33.297992 0.000000 -0.000000 0.000000 -1.384521 3.257103 20.721137 2.055280 -0.709543 -3.388604 1.167001 -0.223140 3.611315 6.356620 14.423072 4.309021 7.711698 11.393373 -2.211212 -23.421177 -1.522181 5.099629 -63.143830 -5.290204 10.692417 10.098612 -31.831506 10.119908 5.543629 -1.048036 -13.908286 22.582620 1.810068 4.842452 61.483036 3.092188 9.994673 -13.597542 24.889869 4.499060 7.372585 1.439346 -12.677423 
1.083358 0.763583 0.899241 -71.328310 1.503296 87.896046 -2.400191 -11.583496 -20.050573 -12.246413 -11.827028 55.623270 10.001223 11.510726 -34.059364 0.000000 -0.000000 0.000000 3.104098 -1.302652 -19.086439 -1.547432 -8.994960 56.177202 3.198539 -14.999524 -31.887988 0.000000 -0.000000 0.000000 -1.527832 4.207653 18.862896 1.741183 -0.492568 -3.578019 0.989137 -0.169433 4.125227 5.227519 14.350540 3.770454 8.403161 10.379673 -1.821949 -21.944927 -0.675142 4.778664 -61.949908 -5.249793 11.368197 6.526774 -34.145171 14.285234 5.726335 -2.407516 -13.034569 21.786918 0.082573 4.528015 61.453846 -0.804843 10.453029 -12.565329 28.641732 6.474701 7.170795 1.955106 -12.070631 
1.074884 0.760056 0.937971 -66.617573 0.618893 88.628642 -3.365116 -11.905213 -15.652142 -11.256932 -16.152155 45.987303 8.551120 8.473025 -26.058615 0.000000 -0.000000 0.000000 2.614285 -2.546274 -14.912375 -1.260342 -9.310597 46.909253 3.179805 -15.394716 -24.051953 0.000000 -0.000000 0.000000 -1.778691 4.860351 16.067279 1.406368 -0.660848 -3.641652 0.602747 -0.488367 4.334804 3.870130 14.230960 3.010022 9.395112 9.471837 -1.289882 -20.670452 0.379086 4.645630 -60.980924 -5.584501 12.301749 4.146614 -35.002328 16.972620 6.923105 -4.172134 -11.778716 21.408859 -2.629176 3.996231 61.778624 -4.436740 11.035157 -12.866099 31.947210 7.294485 5.101622 2.765616 -10.427057 
1.064659 0.752730 0.996176 -61.074652 0.155271 88.978399 -2.734431 -11.151921 -9.921154 -9.629205 -20.550356 32.492228 4.068845 2.600148 -10.010737 0.000000 -0.000000 0.000000 1.801925 -4.814268 -8.686075 -0.693862 -9.839526 33.561130 3.170054 -13.334470 -7.392019 0.000000 -0.000000 0.000000 -1.848465 4.550379 12.269400 1.263046 -1.830177 -1.712150 0.661586 -1.007995 3.399430 2.039188 13.123223 3.263033 10.911144 9.760407 -1.408575 -20.427895 1.343240 4.919442 -61.429499 -5.597538 12.863476 5.279334 -34.510481 15.753226 7.467691 -4.596467 -12.062628 20.774117 -4.566665 3.826281 62.014414 -6.793387 11.346520 -12.408708 32.494208 7.739638 3.633662 2.934462 -10.381433 
1.060787 0.743679 1.060692 -55.077957 -0.712605 90.647165 -1.556532 -9.471742 -8.146535 -7.088091 -18.988877 18.716118 -7.196847 -2.877025 13.581765 0.000000 -0.000000 0.000000 -0.077242 -6.205741 -5.628789 -1.052803 -13.138836 21.251615 5.389804 -10.786249 15.318322 0.000000 -0.000000 0.000000 -2.374694 3.772562 7.840109 1.081442 -3.901964 -1.583110 1.139820 -1.522319 3.948860 0.008461 12.495784 3.253797 13.165806 9.659671 -1.738798 -19.880605 1.118555 5.815868 -63.680195 -5.438254 12.043625 7.171367 -33.769286 9.437566 9.748177 -5.132519 -10.126113 18.985572 -5.600185 3.743456 62.217489 -8.086792 10.650888 -9.454370 32.810708 8.093230 -8.129065 1.809133 -7.121360 
1.060212 0.736198 1.118530 -49.741883 -1.000256 91.904124 -0.734488 -5.599049 -8.337355 -6.026961 -12.701906 10.731437 -13.047528 -0.394752 26.535106 0.000000 -0.000000 0.000000 -0.664559 -6.472203 -4.358763 -0.845596 -12.529493 12.289737 5.144438 -10.895149 31.849410 0.000000 -0.000000 0.000000 -1.845214 1.892717 4.971212 0.673705 -5.032850 -1.361544 1.112942 -1.786650 3.970015 -2.545201 9.952333 1.783183 15.113443 11.170694 0.031061 -19.927439 1.166399 6.175585 -64.140037 -4.821377 11.715959 7.882802 -34.638829 6.604908 7.582749 -5.929772 -9.961916 17.496408 -5.809426 4.364319 62.162375 -9.116660 11.085025 -8.657717 33.159786 9.324453 4.826134 0.944134 -8.750204 
1.062587 0.731806 1.162218 -45.674951 -0.831966 92.576209 -0.925246 -4.057368 -8.333878 -5.200589 -10.284611 8.640285 -11.425913 0.186267 21.686111 0.000000 -0.000000 0.000000 -0.910442 -5.381966 -5.577926 -0.472367 -9.500343 11.974379 5.311352 -10.814799 30.057234 0.000000 -0.000000 0.000000 -0.655030 0.678952 3.269771 0.394450 -5.062248 -0.791607 0.402629 -1.840177 3.870396 -2.760659 9.456026 1.676252 15.016946 11.116360 1.004734 -20.138079 0.682189 5.703276 -63.354451 -4.962515 12.158096 6.190161 -34.919334 7.944340 6.571680 -6.645471 -8.818840 17.883995 -6.015405 4.861003 60.510094 -9.789719 11.521223 -7.075321 34.096735 9.780923 5.061638 1.808369 -8.104989 
